<?xml version="1.0" encoding="UTF-8" standalone="no"?>
<!-- Created with Inkscape (http://www.inkscape.org/) -->

<svg
   width="210mm"
   height="297mm"
   viewBox="0 0 210 297"
   version="1.1"
   id="svg12506"
   sodipodi:docname="whole lotta wood 1.svg"
   inkscape:version="1.2.1 (9c6d41e410, 2022-07-14)"
   xml:space="preserve"
   xmlns:inkscape="http://www.inkscape.org/namespaces/inkscape"
   xmlns:sodipodi="http://sodipodi.sourceforge.net/DTD/sodipodi-0.dtd"
   xmlns="http://www.w3.org/2000/svg"
   xmlns:svg="http://www.w3.org/2000/svg"><sodipodi:namedview
     id="namedview12508"
     pagecolor="#ffffff"
     bordercolor="#000000"
     borderopacity="0.25"
     inkscape:showpageshadow="2"
     inkscape:pageopacity="0.0"
     inkscape:pagecheckerboard="0"
     inkscape:deskcolor="#d1d1d1"
     inkscape:document-units="mm"
     showgrid="true"
     inkscape:zoom="1.4503087"
     inkscape:cx="297.86763"
     inkscape:cy="100.32347"
     inkscape:window-width="1920"
     inkscape:window-height="1001"
     inkscape:window-x="-9"
     inkscape:window-y="-9"
     inkscape:window-maximized="1"
     inkscape:current-layer="layer1"><inkscape:grid
       type="xygrid"
       id="grid12874"
       dotted="false"
       units="mm"
       spacingx="1"
       spacingy="1" /></sodipodi:namedview><defs
     id="defs12503" /><g
     inkscape:label="Layer 1"
     inkscape:groupmode="layer"
     id="layer1"><ellipse
       style="fill:none;fill-opacity:1;stroke:#ff0000;stroke-width:0.0594059;stroke-miterlimit:4;stroke-dasharray:none;stroke-opacity:1"
       id="path165-4-7"
       cx="92.663391"
       cy="34.99823"
       rx="2.9702969"
       ry="2.9702971" /><rect
       style="fill:none;stroke:#ff0000;stroke-width:0.0825546;stroke-miterlimit:4;stroke-dasharray:none;stroke-opacity:1"
       id="rect275-7-3"
       width="54.955803"
       height="59.951126"
       x="65.002922"
       y="5.0029168" /><path
       id="rect1165-5"
       style="fill:none;stroke:#ff0000;stroke-width:0.132416;stroke-opacity:1"
       d="M 10,5 C 7.2666817,5 5.0659343,7.20074 5.0659343,9.93406 v 5.06584 c 0,0.27474 0.023366,0.54386 0.066146,0.80615 v 59.0026 c -0.0024,0.0636 -0.00465,0.12704 -0.00465,0.19121 v 5.00021 c 0,2.73604 2.2026834,4.93872 4.9387167,4.93872 h 50.000049 c 2.736037,0 4.938717,-2.20268 4.938717,-4.93872 v -5.00021 c 0,-2.73603 -2.20268,-4.9382 -4.938717,-4.9382 H 19.99939 V 19.93397 H 40.000236 L 40,17 h 5 l -6.9e-5,2.93397 h 5.000212 L 50,17 l 5,0 -1.62e-4,2.93397 c 2.733317,0 4.933549,-2.20075 4.933549,-4.93407 V 9.93406 C 59.933387,7.20074 57.733155,5 54.999838,5 Z"
       sodipodi:nodetypes="sssccsssssssccccccccccssss" /><circle
       style="fill:none;stroke:#ff0000;stroke-width:0.0499999;stroke-dasharray:none"
       id="path8617"
       cx="46.500095"
       cy="77.528938"
       r="1.5" /><ellipse
       style="fill:none;stroke:#ff0000;stroke-width:0.108462;stroke-dasharray:none"
       id="path8622"
       cx="60.470463"
       cy="77.528938"
       rx="2.4704633"
       ry="0.47618648" /><ellipse
       style="fill:none;stroke:#ff0000;stroke-width:0.108091;stroke-dasharray:none"
       id="path8622-8"
       cx="32.529655"
       cy="77.528938"
       rx="2.470346"
       ry="0.47296965" /><path
       id="rect8654"
       style="fill:none;stroke:#ff0000;stroke-width:0.0499999;stroke-dasharray:none"
       d="m 25.000118,24.99981 v 9.9999 h 5.000212 v 2.99982 h 4.999695 v -2.99982 h 5.000211 v 2.99982 h 4.999695 v -2.99982 -0.99993 -8.99997 z" /></g></svg>
