<?xml version="1.0" encoding="UTF-8" standalone="no"?>
<!-- Created with Inkscape (http://www.inkscape.org/) -->

<svg
   width="210mm"
   height="297mm"
   viewBox="0 0 210 297"
   version="1.1"
   id="svg12506"
   sodipodi:docname="whole lotta wood.svg"
   inkscape:version="1.2.1 (9c6d41e410, 2022-07-14)"
   xml:space="preserve"
   xmlns:inkscape="http://www.inkscape.org/namespaces/inkscape"
   xmlns:sodipodi="http://sodipodi.sourceforge.net/DTD/sodipodi-0.dtd"
   xmlns="http://www.w3.org/2000/svg"
   xmlns:svg="http://www.w3.org/2000/svg"><sodipodi:namedview
     id="namedview12508"
     pagecolor="#ffffff"
     bordercolor="#000000"
     borderopacity="0.25"
     inkscape:showpageshadow="2"
     inkscape:pageopacity="0.0"
     inkscape:pagecheckerboard="0"
     inkscape:deskcolor="#d1d1d1"
     inkscape:document-units="mm"
     showgrid="true"
     inkscape:zoom="1.0255231"
     inkscape:cx="230.12646"
     inkscape:cy="607.98241"
     inkscape:window-width="1920"
     inkscape:window-height="1001"
     inkscape:window-x="-9"
     inkscape:window-y="-9"
     inkscape:window-maximized="1"
     inkscape:current-layer="layer1"><inkscape:grid
       type="xygrid"
       id="grid12874"
       dotted="false"
       units="mm"
       spacingx="1"
       spacingy="1" /></sodipodi:namedview><defs
     id="defs12503" /><g
     inkscape:label="Layer 1"
     inkscape:groupmode="layer"
     id="layer1"><path
       id="rect12878"
       style="fill:none;stroke:#ff0000;stroke-width:0.1;stroke-dasharray:none"
       d="M 5.0002116,5.0002116 V 15.000118 L 5.0003052,50 5.0000936,52.999764 H 10.000094 L 10,50 h 8.000029 l 6.5e-5,2.999764 h 7 v -3 h 8 v 3 h 5 v -3 L 38,15 V 5 H 33 V 15 L 9.9999064,15.000118 V 5.0002116 Z"
       sodipodi:nodetypes="ccccccccccccccccccccc" /><path
       id="rect12878-55"
       style="fill:none;stroke:#ff0000;stroke-width:0.1;stroke-dasharray:none"
       d="m 40.000212,5.000212 v 9.999906 L 40.000305,50 H 40 46.058333 v 3 h 5.883334 v -3 h 9.116666 v 3 h 5.883334 V 50 H 73 l 9.4e-5,-2.36e-4 L 73,15 V 5 h -5 v 10 l -23.000094,1.18e-4 V 5.000212 Z"
       sodipodi:nodetypes="ccccccccccccccccccccc" /><path
       id="rect12897-0"
       style="fill:none;stroke:#ff0000;stroke-width:0.125183;stroke-dasharray:none"
       d="M 9.9813029,60.850033 10.05675,70.025183 5,70 v 0 H 2 l -1.221e-4,5.045028 h 3.0597616 l -0.00982,4.925797 H 2.0897949 v 4.977991 h 2.9502075 l -0.00982,5.04362 H 2.0892782 v 4.979024 h 2.9310872 l -0.00982,5.009513 -3.0998236,0.05799 L 2,105 h 2.9109334 v 0.0388 l 33.0888146,-0.039 v -0.0388 h 3.000333 v -4.980067 h -2.997233 l 0.0026,-5.009513 h 2.994649 v -4.97902 h -2.992065 l 0.0026,-5.04362 h 2.989481 V 79.970829 H 38.0137 l 0.0026,-4.925797 h 2.983797 L 41,70 h -3 l 0.01887,-0.02546 h -5.000212 l -0.03772,-9.124507 h -8.000029 l 0.03824,9.124507 -7.037814,0.05064 v -9.17515 z"
       sodipodi:nodetypes="ccccccccccccccccccccccccccccccccccccccccccccc" /><path
       id="rect12897-0-8"
       style="fill:none;stroke:#ff0000;stroke-width:0.1;stroke-dasharray:none"
       d="m 48.941666,56.237496 4.4e-5,3.179029 h -4.987293 l -0.06925,14.920536 0.05633,5.17e-4 v 3.078882 h 5.000212 v -3.049427 l 4.999695,0.02997 2.62e-4,6.01966 h 5.000211 l -2.62e-4,-5.989688 5.000212,0.02997 -1.61e-4,2.959718 h 4.999695 l 1.61e-4,-2.92974 5.000211,0.02997 -6.7e-5,5.89977 h 4.999695 l 6.7e-5,-15.999927 2.38e-4,-7.3e-5 v -5 h -5 v -3.179167 h -5 l -0.09781,3.337159 h -5.000208 v -3.528984 h -5.000212 v 3.528984 h -4.999695 l 0.09792,-3.337159 z"
       sodipodi:nodetypes="ccccccccccccccccccccccccccccccccc" /><path
       id="rect12897-0-8-9"
       style="fill:none;stroke:#ff0000;stroke-width:0.1;stroke-dasharray:none"
       d="m 49.156564,83.308676 4.4e-5,3.179029 h -4.987293 l -0.06925,14.920545 0.05633,5.1e-4 v 3.07889 h 5.000212 v -3.04943 l 4.999695,0.03 2.62e-4,6.01967 h 5.000211 l -2.62e-4,-5.9897 5.000212,0.03 -1.61e-4,2.95973 h 4.999695 l 1.61e-4,-2.92975 5.000211,0.03 -6.7e-5,5.89978 h 4.999694 l 7e-5,-15.999942 2.4e-4,-7.3e-5 v -5 h -5.000004 v -3.179167 h -5 l -0.09781,3.337159 h -5.000208 v -3.528986 h -5.000212 v 3.528984 h -4.999695 l 0.09792,-3.337159 z"
       sodipodi:nodetypes="ccccccccccccccccccccccccccccccccc" /><circle
       style="fill:none;stroke:#ff0000;stroke-width:0.1;stroke-dasharray:none"
       id="path22279"
       cx="7.5500002"
       cy="8.5"
       r="0.5" /><circle
       style="fill:none;stroke:#ff0000;stroke-width:0.1;stroke-dasharray:none"
       id="path22279-2"
       cx="35.549999"
       cy="8.5"
       r="0.5" /><circle
       style="fill:none;stroke:#ff0000;stroke-width:0.1;stroke-dasharray:none"
       id="path22279-1"
       cx="42.366676"
       cy="8.6833344"
       r="0.5" /><circle
       style="fill:none;stroke:#ff0000;stroke-width:0.1;stroke-dasharray:none"
       id="path22279-2-2"
       cx="70.366676"
       cy="8.6833344"
       r="0.5" /><path
       id="rect12878-55-5"
       style="fill:none;stroke:#ff0000;stroke-width:0.1;stroke-dasharray:none"
       d="m 75.000165,5.0294967 v 9.9999063 l 9.3e-5,34.999882 -2.11e-4,2.999764 h 5 l -9.4e-5,-2.999764 h 8.000029 l 6.5e-5,2.999764 h 7.000001 v -3 h 8.000002 v 3 h 5 v -3 l -1e-4,-34.999764 V 5.0292847 h -5 V 15.029285 l -23.000091,1.18e-4 V 5.0294967 Z"
       sodipodi:nodetypes="ccccccccccccccccccccc" /><circle
       style="fill:none;stroke:#ff0000;stroke-width:0.1;stroke-dasharray:none"
       id="path22279-1-1"
       cx="77.366631"
       cy="8.7126188"
       r="0.5" /><circle
       style="fill:none;stroke:#ff0000;stroke-width:0.1;stroke-dasharray:none"
       id="path22279-2-2-9"
       cx="105.36663"
       cy="8.7126188"
       r="0.5" /><rect
       style="fill:none;stroke:#ff0000;stroke-width:0.0499999"
       id="rect1214"
       width="8"
       height="3"
       x="45"
       y="32.000004" /><rect
       style="fill:none;stroke:#ff0000;stroke-width:0.0499999"
       id="rect1216"
       width="8"
       height="3"
       x="60"
       y="32.000004" /><rect
       style="fill:none;stroke:#ff0000;stroke-width:0.0499999"
       id="rect1214-2"
       width="8"
       height="3"
       x="10"
       y="32" /><rect
       style="fill:none;stroke:#ff0000;stroke-width:0.0499999"
       id="rect1216-6"
       width="8"
       height="3"
       x="25"
       y="32" /><rect
       style="fill:none;stroke:#ff0000;stroke-width:0.0499999"
       id="rect1214-8"
       width="8"
       height="3"
       x="80"
       y="32" /><rect
       style="fill:none;stroke:#ff0000;stroke-width:0.0499999"
       id="rect1216-7"
       width="8"
       height="3"
       x="95"
       y="32" /><rect
       style="fill:none;fill-opacity:1;stroke:#ff0000;stroke-width:0.0663885;stroke-miterlimit:4;stroke-dasharray:none;stroke-opacity:1"
       id="rect7374"
       width="54.958611"
       height="64.958611"
       x="85"
       y="60" /><rect
       style="fill:none;fill-opacity:1;stroke:#ff0000;stroke-width:0.0431893;stroke-miterlimit:4;stroke-dasharray:none;stroke-opacity:1"
       id="rect7376"
       width="12.956811"
       height="12.956811"
       x="106.0134"
       y="81.013397" /><rect
       style="fill:none;fill-opacity:1;stroke:#ff0000;stroke-width:0.05;stroke-miterlimit:4;stroke-dasharray:none;stroke-opacity:1"
       id="rect8832"
       width="6.9638925"
       height="2.9954121"
       x="108.98069"
       y="111.98653" /><rect
       style="fill:none;fill-opacity:1;stroke:#ff0000;stroke-width:0.05;stroke-miterlimit:4;stroke-dasharray:none;stroke-opacity:1"
       id="rect8832-9"
       width="6.9638925"
       height="2.9954121"
       x="108.95861"
       y="117.99998" /><rect
       style="fill:none;fill-opacity:1;stroke:#ff0000;stroke-width:0.05;stroke-miterlimit:4;stroke-dasharray:none;stroke-opacity:1"
       id="rect8858"
       width="5.014606"
       height="2.9977925"
       x="95.980347"
       y="111.98453" /><rect
       style="fill:none;fill-opacity:1;stroke:#ff0000;stroke-width:0.05;stroke-miterlimit:4;stroke-dasharray:none;stroke-opacity:1"
       id="rect8858-6"
       width="5.014606"
       height="2.9977925"
       x="95.922142"
       y="118.00001" /><rect
       style="fill:none;fill-opacity:1;stroke:#ff0000;stroke-width:0.05;stroke-miterlimit:4;stroke-dasharray:none;stroke-opacity:1"
       id="rect8858-9"
       width="5"
       height="3.0081863"
       x="123.96265"
       y="111.99182" /><rect
       style="fill:none;fill-opacity:1;stroke:#ff0000;stroke-width:0.05;stroke-miterlimit:4;stroke-dasharray:none;stroke-opacity:1"
       id="rect8858-9-0"
       width="5"
       height="3.0081863"
       x="123.95861"
       y="118.05833" /><rect
       style="fill:none;stroke:#ff0000;stroke-width:0.0433012;stroke-dasharray:none"
       id="rect4502"
       width="6"
       height="3"
       x="101.95861"
       y="115" /><rect
       style="fill:none;stroke:#ff0000;stroke-width:0.0433013;stroke-dasharray:none"
       id="rect4504"
       width="6"
       height="3"
       x="116.95861"
       y="115" /><ellipse
       style="fill:none;fill-opacity:1;stroke:#ff0000;stroke-width:0.0594059;stroke-miterlimit:4;stroke-dasharray:none;stroke-opacity:1"
       id="path165-4"
       cx="132.5"
       cy="27.5"
       rx="2.9702969"
       ry="2.9702971" /><rect
       style="fill:none;stroke:#ff0000;stroke-width:0.0647214;stroke-miterlimit:4;stroke-dasharray:none;stroke-opacity:1"
       id="rect275-7"
       width="45"
       height="45"
       x="110"
       y="5" /><rect
       style="fill:none;stroke:#ff0000;stroke-width:0.0499999;stroke-dasharray:none"
       id="rect6042"
       width="3"
       height="5"
       x="128.9586"
       y="107" /><rect
       style="fill:none;stroke:#ff0000;stroke-width:0.0499999;stroke-dasharray:none"
       id="rect6042-0"
       width="3"
       height="5"
       x="128.98776"
       y="97" /><rect
       style="fill:none;stroke:#ff0000;stroke-width:0.0499999;stroke-dasharray:none"
       id="rect6042-9"
       width="3"
       height="5"
       x="128.92944"
       y="87" /><rect
       style="fill:none;stroke:#ff0000;stroke-width:0.0499999;stroke-dasharray:none"
       id="rect6042-0-4"
       width="3"
       height="5"
       x="128.9586"
       y="77" /><rect
       style="fill:none;stroke:#ff0000;stroke-width:0.0499999;stroke-dasharray:none"
       id="rect6042-03"
       width="3"
       height="5"
       x="92.958611"
       y="107" /><rect
       style="fill:none;stroke:#ff0000;stroke-width:0.0499999;stroke-dasharray:none"
       id="rect6042-0-9"
       width="3"
       height="5"
       x="92.98777"
       y="97" /><rect
       style="fill:none;stroke:#ff0000;stroke-width:0.0499999;stroke-dasharray:none"
       id="rect6042-9-2"
       width="3"
       height="5"
       x="92.929451"
       y="87" /><rect
       style="fill:none;stroke:#ff0000;stroke-width:0.0499999;stroke-dasharray:none"
       id="rect6042-0-4-4"
       width="3"
       height="5"
       x="92.958611"
       y="77" /><rect
       style="fill:none;stroke:#ff0000;stroke-width:0.0499999;stroke-dasharray:none"
       id="rect6042-0-5"
       width="3"
       height="5"
       x="149.03333"
       y="36.849998" /><rect
       style="fill:none;stroke:#ff0000;stroke-width:0.0499999;stroke-dasharray:none"
       id="rect6042-0-4-7"
       width="3"
       height="5"
       x="149.00417"
       y="16.849997" /><rect
       style="fill:none;stroke:#ff0000;stroke-width:0.0499999;stroke-dasharray:none"
       id="rect6042-0-9-0"
       width="3"
       height="5"
       x="113.03334"
       y="36.849998" /><rect
       style="fill:none;stroke:#ff0000;stroke-width:0.0499999;stroke-dasharray:none"
       id="rect6042-0-4-4-8"
       width="3"
       height="5"
       x="113.00418"
       y="16.849997" /><ellipse
       style="fill:none;fill-opacity:1;stroke:#ff0000;stroke-width:0.0594059;stroke-miterlimit:4;stroke-dasharray:none;stroke-opacity:1"
       id="path165-4-7"
       cx="170.20467"
       cy="85"
       rx="2.9702969"
       ry="2.9702971" /><rect
       style="fill:none;stroke:#ff0000;stroke-width:0.0767209;stroke-miterlimit:4;stroke-dasharray:none;stroke-opacity:1"
       id="rect275-7-3"
       width="47.458729"
       height="59.956963"
       x="142.54128"
       y="55.00177" /><path
       id="rect1165-5"
       style="fill:none;stroke:#ff0000;stroke-width:0.132416;stroke-opacity:1"
       d="M 9.9999064 115.00022 C 7.2665881 115.00022 5.0658407 117.20096 5.0658407 119.93428 L 5.0658407 125.00012 C 5.0658407 125.27486 5.0892065 125.54398 5.1319865 125.80627 L 5.1319865 184.80887 C 5.1295865 184.87247 5.1273356 184.93591 5.1273356 185.00008 L 5.1273356 190.00029 C 5.1273356 192.73633 7.330019 194.93901 10.066052 194.93901 L 60.066101 194.93901 C 62.802138 194.93901 65.004818 192.73633 65.004818 190.00029 L 65.004818 185.00008 C 65.004818 182.26405 62.802138 180.06188 60.066101 180.06188 L 19.999296 180.06188 L 19.999296 129.93419 L 40.000142 129.93419 L 40.000142 133.00015 L 44.999837 133.00015 L 44.999837 129.93419 L 50.000049 129.93419 L 50.000049 133.00015 L 54.999744 133.00015 L 54.999744 129.93419 C 57.733061 129.93419 59.933293 127.73344 59.933293 125.00012 L 59.933293 119.93428 C 59.933293 117.20096 57.733061 115.00022 54.999744 115.00022 L 9.9999064 115.00022 z " /><circle
       style="fill:none;stroke:#ff0000;stroke-width:0.0499999;stroke-dasharray:none"
       id="path8617"
       cx="46.5"
       cy="187.52916"
       r="1.5" /><ellipse
       style="fill:none;stroke:#ff0000;stroke-width:0.118338;stroke-dasharray:none"
       id="path8622"
       cx="60"
       cy="187.52916"
       rx="2.9408312"
       ry="0.47618648" /><ellipse
       style="fill:none;stroke:#ff0000;stroke-width:0.118427;stroke-dasharray:none"
       id="path8622-8"
       cx="33.02457"
       cy="187.52916"
       rx="2.9653575"
       ry="0.47296965" /><path
       id="rect8654"
       style="fill:none;stroke:#ff0000;stroke-width:0.0499999;stroke-dasharray:none"
       d="M 25.000024 135.00003 L 25.000024 144.99993 L 30.000236 144.99993 L 30.000236 147.99975 L 34.999931 147.99975 L 34.999931 144.99993 L 40.000142 144.99993 L 40.000142 147.99975 L 44.999837 147.99975 L 44.999837 144.99993 L 44.999837 144 L 44.999837 135.00003 L 25.000024 135.00003 z " /></g></svg>
