<?xml version="1.0" encoding="UTF-8" standalone="no"?>
<!-- Created with Inkscape (http://www.inkscape.org/) -->

<svg
   width="210mm"
   height="297mm"
   viewBox="0 0 210 297"
   version="1.1"
   id="svg12506"
   sodipodi:docname="servo holder MK4.svg"
   inkscape:version="1.2.1 (9c6d41e410, 2022-07-14)"
   xmlns:inkscape="http://www.inkscape.org/namespaces/inkscape"
   xmlns:sodipodi="http://sodipodi.sourceforge.net/DTD/sodipodi-0.dtd"
   xmlns="http://www.w3.org/2000/svg"
   xmlns:svg="http://www.w3.org/2000/svg">
  <sodipodi:namedview
     id="namedview12508"
     pagecolor="#ffffff"
     bordercolor="#000000"
     borderopacity="0.25"
     inkscape:showpageshadow="2"
     inkscape:pageopacity="0.0"
     inkscape:pagecheckerboard="0"
     inkscape:deskcolor="#d1d1d1"
     inkscape:document-units="mm"
     showgrid="true"
     inkscape:zoom="2.0510462"
     inkscape:cx="245.72826"
     inkscape:cy="216.71867"
     inkscape:window-width="1920"
     inkscape:window-height="1001"
     inkscape:window-x="-9"
     inkscape:window-y="-9"
     inkscape:window-maximized="1"
     inkscape:current-layer="layer1">
    <inkscape:grid
       type="xygrid"
       id="grid12874"
       dotted="false"
       units="mm"
       spacingx="1"
       spacingy="1" />
  </sodipodi:namedview>
  <defs
     id="defs12503" />
  <g
     inkscape:label="Layer 1"
     inkscape:groupmode="layer"
     id="layer1">
    <path
       id="rect12878"
       style="fill:none;stroke:#ff0000;stroke-width:0.1;stroke-dasharray:none"
       d="M 5.0002116,5.0002116 V 15.000118 L 5.0003052,50 5.0000936,52.999764 H 10.000094 L 10,50 h 8.000029 l 6.5e-5,2.999764 h 7 v -3 h 8 v 3 h 5 v -3 L 38,15 V 5 H 33 V 15 L 9.9999064,15.000118 V 5.0002116 Z"
       sodipodi:nodetypes="ccccccccccccccccccccc" />
    <path
       id="rect12878-55"
       style="fill:none;stroke:#ff0000;stroke-width:0.1;stroke-dasharray:none"
       d="m 40.000212,5.000212 v 9.999906 L 40.000305,50 H 40 46.058333 v 3 h 5.883334 v -3 h 9.116666 v 3 h 5.883334 V 50 H 73 l 9.4e-5,-2.36e-4 L 73,15 V 5 h -5 v 10 l -23.000094,1.18e-4 V 5.000212 Z"
       sodipodi:nodetypes="ccccccccccccccccccccc" />
    <path
       id="rect12897-0"
       style="fill:none;stroke:#ff0000;stroke-width:0.125183;stroke-dasharray:none"
       d="M 9.9813029,60.850033 10.05675,70.025183 5,70 v 0 H 2 l -1.221e-4,5.045028 h 3.0597616 l -0.00982,4.925797 H 2.0897949 v 4.977991 h 2.9502075 l -0.00982,5.04362 H 2.0892782 v 4.979024 h 2.9310872 l -0.00982,5.009513 -3.0998236,0.05799 L 2,105 h 2.9109334 v 0.0388 l 33.0888146,-0.039 v -0.0388 h 3.000333 v -4.980067 h -2.997233 l 0.0026,-5.009513 h 2.994649 v -4.97902 h -2.992065 l 0.0026,-5.04362 h 2.989481 V 79.970829 H 38.0137 l 0.0026,-4.925797 h 2.983797 L 41,70 h -3 l 0.01887,-0.02546 h -5.000212 l -0.03772,-9.124507 h -8.000029 l 0.03824,9.124507 -7.037814,0.05064 v -9.17515 z"
       sodipodi:nodetypes="ccccccccccccccccccccccccccccccccccccccccccccc" />
    <path
       id="rect12897-0-8"
       style="fill:none;stroke:#ff0000;stroke-width:0.1;stroke-dasharray:none"
       d="m 50,61 4.4e-5,8.999862 h -4.987293 l -0.06925,14.920536 0.05633,5.17e-4 v 3.078882 h 5.000212 V 84.95037 l 4.999695,0.02997 v 3.019454 h 5.000211 v -2.989482 l 5.000212,0.02997 v 2.95951 h 4.999695 V 85.07026 l 5.000211,0.02997 v 2.899565 h 4.999695 V 75.000073 h -0.10387 l 0.0062,-4.842081 H 74.90188 L 75,61 h -5 l -0.09781,9.157992 H 64.901982 V 63.983175 H 59.90177 v 6.174817 H 54.902075 L 55,61 Z"
       sodipodi:nodetypes="ccccccccccccccccccccccccccccccccc" />
    <path
       id="rect12897-0-8-9"
       style="fill:none;stroke:#ff0000;stroke-width:0.1;stroke-dasharray:none"
       d="m 49.949995,90.937504 4.4e-5,8.999862 h -4.987293 l -0.06925,14.920584 0.05633,5.1e-4 v 3.07889 h 5.000212 v -3.04943 l 4.999695,0.03 v 3.01945 h 5.000211 v -2.98948 l 5.000212,0.03 v 2.95951 h 4.999695 v -2.92953 l 5.000211,0.03 v 2.89956 h 4.999695 V 104.9376 h -0.10387 l 0.0062,-4.8421 h -5.000212 l 0.09812,-9.157996 h -5 l -0.09781,9.157996 H 64.851977 V 93.920679 H 59.851765 V 100.0955 H 54.85207 L 54.95,90.937504 Z"
       sodipodi:nodetypes="ccccccccccccccccccccccccccccccccc" />
    <circle
       style="fill:none;stroke:#ff0000;stroke-width:0.1;stroke-dasharray:none"
       id="path22279"
       cx="7.5500002"
       cy="8.5"
       r="0.5" />
    <circle
       style="fill:none;stroke:#ff0000;stroke-width:0.1;stroke-dasharray:none"
       id="path22279-2"
       cx="35.549999"
       cy="8.5"
       r="0.5" />
    <circle
       style="fill:none;stroke:#ff0000;stroke-width:0.1;stroke-dasharray:none"
       id="path22279-1"
       cx="42.366676"
       cy="8.6833344"
       r="0.5" />
    <circle
       style="fill:none;stroke:#ff0000;stroke-width:0.1;stroke-dasharray:none"
       id="path22279-2-2"
       cx="70.366676"
       cy="8.6833344"
       r="0.5" />
    <path
       id="rect12878-55-5"
       style="fill:none;stroke:#ff0000;stroke-width:0.1;stroke-dasharray:none"
       d="m 75.000165,5.0294967 v 9.9999063 l 9.3e-5,34.999882 -2.11e-4,2.999764 h 5 l -9.4e-5,-2.999764 h 8.000029 l 6.5e-5,2.999764 h 7.000001 v -3 h 8.000002 v 3 h 5 v -3 l -1e-4,-34.999764 V 5.0292847 h -5 V 15.029285 l -23.000091,1.18e-4 V 5.0294967 Z"
       sodipodi:nodetypes="ccccccccccccccccccccc" />
    <circle
       style="fill:none;stroke:#ff0000;stroke-width:0.1;stroke-dasharray:none"
       id="path22279-1-1"
       cx="77.366631"
       cy="8.7126188"
       r="0.5" />
    <circle
       style="fill:none;stroke:#ff0000;stroke-width:0.1;stroke-dasharray:none"
       id="path22279-2-2-9"
       cx="105.36663"
       cy="8.7126188"
       r="0.5" />
    <rect
       style="fill:none;stroke:#ff0000;stroke-width:0.0499999"
       id="rect1214"
       width="8"
       height="3"
       x="45"
       y="32.000004" />
    <rect
       style="fill:none;stroke:#ff0000;stroke-width:0.0499999"
       id="rect1216"
       width="8"
       height="3"
       x="60"
       y="32.000004" />
    <rect
       style="fill:none;stroke:#ff0000;stroke-width:0.0499999"
       id="rect1214-2"
       width="8"
       height="3"
       x="10"
       y="32" />
    <rect
       style="fill:none;stroke:#ff0000;stroke-width:0.0499999"
       id="rect1216-6"
       width="8"
       height="3"
       x="25"
       y="32" />
    <rect
       style="fill:none;stroke:#ff0000;stroke-width:0.0499999"
       id="rect1214-8"
       width="8"
       height="3"
       x="80"
       y="32" />
    <rect
       style="fill:none;stroke:#ff0000;stroke-width:0.0499999"
       id="rect1216-7"
       width="8"
       height="3"
       x="95"
       y="32" />
    <rect
       style="fill:none;fill-opacity:1;stroke:#ff0000;stroke-width:0.0663885;stroke-miterlimit:4;stroke-dasharray:none;stroke-opacity:1"
       id="rect7374"
       width="54.958611"
       height="64.958611"
       x="85.041397"
       y="60" />
    <rect
       style="fill:none;fill-opacity:1;stroke:#ff0000;stroke-width:0.0431893;stroke-miterlimit:4;stroke-dasharray:none;stroke-opacity:1"
       id="rect7376"
       width="12.956811"
       height="12.956811"
       x="106.05479"
       y="81.013397" />
    <rect
       style="fill:none;fill-opacity:1;stroke:#ff0000;stroke-width:0.05;stroke-miterlimit:4;stroke-dasharray:none;stroke-opacity:1"
       id="rect8832"
       width="6.9638925"
       height="2.9954121"
       x="109.02209"
       y="111.98653" />
    <rect
       style="fill:none;fill-opacity:1;stroke:#ff0000;stroke-width:0.05;stroke-miterlimit:4;stroke-dasharray:none;stroke-opacity:1"
       id="rect8832-9"
       width="6.9638925"
       height="2.9954121"
       x="109"
       y="118" />
    <rect
       style="fill:none;fill-opacity:1;stroke:#ff0000;stroke-width:0.05;stroke-miterlimit:4;stroke-dasharray:none;stroke-opacity:1"
       id="rect8858"
       width="5.014606"
       height="2.9977925"
       x="96.021736"
       y="111.98451" />
    <rect
       style="fill:none;fill-opacity:1;stroke:#ff0000;stroke-width:0.05;stroke-miterlimit:4;stroke-dasharray:none;stroke-opacity:1"
       id="rect8858-6"
       width="5.014606"
       height="2.9977925"
       x="95.963531"
       y="118" />
    <rect
       style="fill:none;fill-opacity:1;stroke:#ff0000;stroke-width:0.05;stroke-miterlimit:4;stroke-dasharray:none;stroke-opacity:1"
       id="rect8858-9"
       width="5"
       height="3.0081863"
       x="124.00404"
       y="111.99181" />
    <rect
       style="fill:none;fill-opacity:1;stroke:#ff0000;stroke-width:0.05;stroke-miterlimit:4;stroke-dasharray:none;stroke-opacity:1"
       id="rect8858-9-0"
       width="5"
       height="3.0081863"
       x="124"
       y="118.05833" />
    <rect
       style="fill:none;stroke:#ff0000;stroke-width:0.0433012;stroke-dasharray:none"
       id="rect4502"
       width="6"
       height="3"
       x="102"
       y="115" />
    <rect
       style="fill:none;stroke:#ff0000;stroke-width:0.0433013;stroke-dasharray:none"
       id="rect4504"
       width="6"
       height="3"
       x="117"
       y="115" />
  </g>
</svg>
