<?xml version="1.0" encoding="UTF-8" standalone="no"?>
<!-- Created with Inkscape (http://www.inkscape.org/) -->

<svg
   width="210mm"
   height="297mm"
   viewBox="0 0 210 297"
   version="1.1"
   id="svg12506"
   sodipodi:docname="servo holder MK4 and a half.svg"
   inkscape:version="1.2.1 (9c6d41e410, 2022-07-14)"
   xmlns:inkscape="http://www.inkscape.org/namespaces/inkscape"
   xmlns:sodipodi="http://sodipodi.sourceforge.net/DTD/sodipodi-0.dtd"
   xmlns="http://www.w3.org/2000/svg"
   xmlns:svg="http://www.w3.org/2000/svg">
  <sodipodi:namedview
     id="namedview12508"
     pagecolor="#ffffff"
     bordercolor="#000000"
     borderopacity="0.25"
     inkscape:showpageshadow="2"
     inkscape:pageopacity="0.0"
     inkscape:pagecheckerboard="0"
     inkscape:deskcolor="#d1d1d1"
     inkscape:document-units="mm"
     showgrid="true"
     inkscape:zoom="2.9006173"
     inkscape:cx="78.259204"
     inkscape:cy="107.04618"
     inkscape:window-width="1920"
     inkscape:window-height="1001"
     inkscape:window-x="-9"
     inkscape:window-y="-9"
     inkscape:window-maximized="1"
     inkscape:current-layer="layer1">
    <inkscape:grid
       type="xygrid"
       id="grid12874"
       dotted="false"
       units="mm"
       spacingx="1"
       spacingy="1" />
  </sodipodi:namedview>
  <defs
     id="defs12503" />
  <g
     inkscape:label="Layer 1"
     inkscape:groupmode="layer"
     id="layer1">
    <path
       id="rect12878"
       style="fill:none;stroke:#ff0000;stroke-width:0.1;stroke-dasharray:none"
       d="M 5.0002116,5.0002116 V 15.000118 30.000236 L 5,33 h 5 l -9.36e-5,-2.999764 H 17.999935 L 18,33 h 7 v -3 h 8 l 0,3 h 5 V 30 15 5 H 33 V 15 L 9.9999064,15.000118 V 5.0002116 Z"
       sodipodi:nodetypes="ccccccccccccccccccccc" />
    <path
       id="rect12897-0"
       style="fill:none;stroke:#ff0000;stroke-width:0.125183;stroke-dasharray:none"
       d="m 10,35 0.07542,6 H 5.0881267 v 19.899044 l 32.9496623,0.05048 v -20 h -5 L 33,35 H 25 L 25.03779,40.949524 18,41 v -6 z"
       sodipodi:nodetypes="ccccccccccccc" />
    <circle
       style="fill:none;stroke:#ff0000;stroke-width:0.1;stroke-dasharray:none"
       id="path22279"
       cx="7.5500002"
       cy="9.0291662"
       r="0.5" />
    <circle
       style="fill:none;stroke:#ff0000;stroke-width:0.1;stroke-dasharray:none"
       id="path22279-2"
       cx="35.549999"
       cy="9.0291662"
       r="0.5" />
    <path
       id="rect12878-5"
       style="fill:none;stroke:#ff0000;stroke-width:0.1;stroke-dasharray:none"
       d="m 39.816884,5.1835422 v 9.9999048 15.000118 l -2.12e-4,2.999764 h 5 l -9.4e-5,-2.999764 h 8.000029 l 6.5e-5,2.999764 h 7 v -3 h 8 v 3 h 5 v -3 -15 -9.9999988 h -5 v 9.9999988 l -23.000094,1.18e-4 V 5.1835422 Z"
       sodipodi:nodetypes="ccccccccccccccccccccc" />
    <circle
       style="fill:none;stroke:#ff0000;stroke-width:0.1;stroke-dasharray:none"
       id="path22279-1"
       cx="42.366676"
       cy="9.2125006"
       r="0.5" />
    <circle
       style="fill:none;stroke:#ff0000;stroke-width:0.1;stroke-dasharray:none"
       id="path22279-2-2"
       cx="70.366676"
       cy="9.2125006"
       r="0.5" />
  </g>
</svg>
